<?xml version="1.0" standalone="no"?>
<svg xmlns="http://www.w3.org/2000/svg" viewBox="0 0 100.68 115.28" width="100.68" height="115.28"><rect fill="#000000" width="100.68" height="115.28" x="0" y="0"></rect><g fill="white" color="white" transform="translate(25.341 12) scale(1.0416667)"><svg width="48.0" height="48.0" x="0.0" y="0.0" viewBox="0 0 48 48"><path fill="currentColor" fill-rule="nonzero" d="M24 .21L.21 24 24 47.79 47.79 24 24 .21zM5.82 24L24 5.82l7.69 7.69-2.8 2.8L24 11.43 11.43 24l4.88 4.89-2.8 2.8L5.82 24zm25.15 0L24 30.97 17.03 24 24 17.03 30.97 24zM16.31 34.49l2.8-2.8L24 36.57 36.57 24l-4.89-4.89 2.8-2.8 7.7 7.69L24 42.18l-7.69-7.69z"></path></svg></g><path fill="white" fill-rule="nonzero" d="M0 23.72L0 23.72L1.28 21.92Q4.20 23.60 7.48 23.60L7.48 23.60Q10 23.60 11.44 22.42Q12.88 21.24 12.88 19.08L12.88 19.08Q12.88 15.40 8.04 13.72L8.04 13.72Q3.92 12.32 2.08 10.60Q0.24 8.88 0.24 6.40L0.24 6.40Q0.24 3.44 2.56 1.64L2.56 1.64Q4.68 0 8.12 0L8.12 0Q11.88 0 14.96 2.08L14.96 2.08L13.64 3.88Q11.16 2.56 8.32 2.56L8.32 2.56Q6.00 2.56 4.64 3.56Q3.28 4.56 3.28 6.28L3.28 6.28Q3.28 8.96 7.44 10.52L7.44 10.52Q12.16 12.32 14.06 14.22Q15.96 16.12 15.96 19.16L15.96 19.16Q15.96 22.64 13.28 24.64L13.28 24.64Q11.08 26.28 7.92 26.28L7.92 26.28Q3.96 26.28 0 23.72ZM24.76 25.80L21.80 25.80L21.80 0.48Q25.36 0 27.96 0L27.96 0Q36.92 0 36.92 7.68L36.92 7.68Q36.92 11.56 34.40 13.64L34.40 13.64Q32.12 15.48 28.28 15.48L28.28 15.48Q26.56 15.48 24.76 15.24L24.76 15.24L24.76 25.80ZM24.76 2.64L24.76 2.64L24.76 12.84Q26.20 13.08 28.12 13.08L28.12 13.08Q33.80 13.08 33.80 7.68L33.80 7.68Q33.80 2.36 27.96 2.36L27.96 2.36Q26.12 2.36 24.76 2.64ZM42.52 0.48L45.48 0.48L45.48 25.80L42.52 25.80L42.52 0.48ZM57.80 3L50.08 3L50.08 0.48L69.12 0.48L69.12 3L60.76 3L60.76 25.80L57.80 25.80L57.80 3ZM73.72 0.48L76.68 0.48L76.68 25.80L73.72 25.80L73.72 0.48Z" transform="translate(12 77) scale(1)"></path></svg>